<svg width="240" height="56" viewBox="0 0 240 56" fill="none" xmlns="http://www.w3.org/2000/svg">
<path d="M47 30.662C48.9171 30.9319 50.3714 30.9993 51.5283 30.9993H59.4941V25.9052H56.2218C54.9658 25.9052 53.7429 26.0064 52.2885 26.2763L51.6605 24.5558C53.5115 24.8257 54.8667 24.8932 55.9905 24.8932H59.4941V19.8328H54.2717C52.8835 19.8328 51.7597 19.8665 50.2392 20.2039L49.6112 18.4496C51.5944 18.7532 52.9165 18.8207 54.0734 18.8207H57.4118L57.3457 18.7195C56.2218 16.4592 54.8667 14.4013 53.5776 12.782L54.3709 11.7362C55.9574 12.5121 57.3126 13.4567 58.4364 14.5025C59.1966 15.211 59.4611 15.8182 59.428 16.6953C59.395 17.505 59.1636 18.3147 58.8331 18.8207H62.8986C63.8571 16.999 64.5843 14.1652 64.8487 11.5675C67.0964 11.7024 69.6084 12.5121 69.5423 13.288C69.4762 14.0977 68.5176 14.1989 67.7574 14.1989C67.2616 15.6495 66.0717 17.6399 64.8157 18.8207H68.2202C68.5838 17.9773 69.6415 16.4255 70.3356 16.4255C71.0627 16.4255 72.9468 18.3484 72.9468 19.1918C72.9468 19.7316 72.7815 19.8328 72.3188 19.8328H63.3613V24.8932H66.6336C66.9641 24.0498 68.0549 22.5316 68.749 22.5316C69.4431 22.5316 71.2941 24.3534 71.2941 25.2642C71.2941 25.7365 71.1619 25.9052 70.6661 25.9052H63.3613V30.9993H71.1289C71.5585 30.1897 72.5501 28.6041 73.3434 28.6041C74.1367 28.6041 75.9546 30.5608 75.9546 31.3704C75.9546 31.8765 75.7894 32.0114 75.3266 32.0114H63.3613V34.4741C63.3613 37.0718 63.4275 39.2984 63.4936 41.896C63.4936 42.7057 63.2952 42.8069 60.2213 43.0093C59.5602 43.043 59.2958 42.8744 59.3289 42.1322C59.395 39.3658 59.4941 37.1055 59.4941 34.4741V32.0114H51.7597C50.5367 32.0114 49.1815 32.0452 47.628 32.3825L47 30.662Z" fill="#F7F6EF"/>
<path d="M119.287 38.0839C118.626 38.1851 118.428 37.9827 118.329 37.3079C118.23 36.8356 118.097 36.5995 117.602 36.4983L116.742 36.3971C116.775 38.0501 116.808 39.8381 116.875 41.9298C116.875 42.6719 116.742 42.7057 114.131 42.9081C113.404 42.9756 113.239 42.7732 113.272 42.0647C113.338 39.6695 113.371 37.9152 113.371 35.4862V28.7053H111.355V36.1609C111.355 36.9706 111.289 37.0381 108.843 37.5104C108.182 37.6453 107.95 37.5104 107.983 36.7344C108.049 33.7994 108.115 31.168 108.115 29.4812C108.115 28.5704 108.115 27.9631 107.983 27.0185C109.074 27.0522 110.396 27.2547 111.355 27.6932H113.371V26.7149C113.371 25.7703 113.338 24.9269 113.206 23.7799C113.801 23.8473 114.23 23.8473 114.792 23.7799C116.478 23.6112 118.031 23.8811 118.031 24.5895C118.031 25.0956 117.436 25.4329 116.742 25.5679V27.6932H118.692C119.023 27.2209 119.552 26.6474 120.114 26.6474C120.742 26.6474 122.89 27.7944 122.89 28.3679C122.89 28.7728 122.527 29.1439 122.163 29.2788L122.262 35.1488C122.262 35.9248 121.965 36.5658 121.403 37.0718C120.874 37.5441 120.015 37.9489 119.287 38.0839ZM95.7204 33.9344C96.1832 33.9006 96.679 33.9006 97.1748 33.8332V27.727C97.1748 26.7824 97.1417 26.0739 97.0426 25.2642C97.5714 25.3317 97.8028 25.3317 98.2986 25.298C99.5546 25.1968 100.844 25.4667 100.844 26.0064C100.844 26.5462 100.249 26.8161 99.6538 26.9173V33.5633C100.083 33.5295 100.48 33.4621 100.91 33.3946V21.6208H100.612V21.7895C100.612 22.2618 100.447 22.3967 98.3978 22.8015C97.8359 22.9365 97.6375 22.8015 97.6706 22.1605C97.7697 19.6304 97.8028 17.6399 97.8028 15.6158C97.8028 14.7387 97.7697 13.9965 97.6706 13.1193C98.6622 13.1868 100.117 13.5916 101.108 14.0977H103.852C104.281 13.5579 104.876 12.9507 105.504 12.9507C106.165 12.9507 107.95 14.1652 107.95 14.7387C107.95 15.2447 107.587 15.4809 107.157 15.6158L107.289 21.1147C107.289 21.7557 106.892 21.8907 105.041 22.2955C104.546 22.3967 104.38 22.2618 104.38 21.722V21.6208H104.05V26.8836H104.347C104.612 26.2426 105.108 25.2642 105.504 25.2642C105.868 25.2642 107.058 26.6812 107.058 27.2884C107.058 27.7944 106.859 27.8956 106.496 27.8956H104.05V32.7536C105.141 32.5175 106.165 32.2138 107.025 31.9102L107.587 33.0235C104.909 34.9127 100.745 36.667 98.2325 37.173C98.3317 38.0501 98.0342 38.8261 97.4723 38.8598C96.8773 38.961 95.9188 37.4092 95.7204 33.9344ZM100.844 20.6087H104.182V15.1098H100.844V20.6087ZM106.132 24.9944C106.132 24.3196 106.364 23.8473 107.025 23.4762C107.653 23.1389 107.983 22.5316 108.182 21.8232C108.347 21.2834 108.38 20.575 108.38 19.8328H109.504C109.669 20.6762 109.768 21.4521 109.768 22.1943H112.346C112.28 22.0593 112.181 21.8907 112.115 21.6545C111.652 20.3051 111.09 18.9219 110.396 17.6062L111.156 16.9652C110.297 16.999 109.636 17.0664 108.281 17.3363L107.653 15.5821C109.504 15.8519 110.33 15.9532 111.619 15.9532H113.272V14.435C113.272 13.4904 113.239 12.7145 113.073 11.7699C113.668 11.8711 114.131 11.8711 114.759 11.8036C116.676 11.635 118.527 11.9386 118.527 12.5796C118.527 13.1868 117.701 13.6591 116.875 13.7603V15.9532H119.188C119.486 15.3459 120.312 14.1314 120.874 14.1314C121.403 14.1314 123.122 15.5821 123.122 16.3242C123.122 16.7965 122.956 16.9652 122.494 16.9652H118.362C120.081 17.2351 121.072 17.7749 121.006 18.2472C120.94 18.652 120.477 18.787 119.882 18.8544C119.453 19.8328 118.593 21.1822 117.536 22.1943H121.039C121.436 21.6208 122.163 20.9798 122.725 20.9798C123.386 20.9798 125.204 22.2618 125.171 22.869C125.138 23.4762 124.543 23.6787 123.849 23.7124C123.254 24.7582 122.427 25.6353 121.039 26.4113L120.213 25.6353C120.742 24.7919 121.105 23.9823 121.271 23.2064H109.702C109.537 24.7582 108.743 26.2088 107.388 26.2088C106.661 26.2088 106.132 25.6691 106.132 24.9944ZM111.652 16.9652C112.511 17.6062 113.106 18.1797 113.569 18.7532C114.065 19.293 114.197 19.9002 114.065 20.6087C113.966 21.1822 113.768 21.8232 113.437 22.1943H115.982C116.676 20.6762 117.139 18.9219 117.271 16.9652H111.652ZM116.742 35.1151C117.172 35.1151 117.536 35.1151 117.932 35.1488C118.692 35.1488 118.924 34.9802 118.924 34.2042V28.7053H116.742V35.1151Z" fill="#F7F6EF"/>
<path d="M159.017 41.2888C158.257 41.3562 157.96 41.1538 157.894 40.3442C157.827 39.5682 157.761 39.3658 157.166 39.1634L155.481 38.6236L155.646 37.2742C156.505 37.3754 157.266 37.4766 158.158 37.5104C158.984 37.5441 159.348 37.3417 159.513 36.2284C160.174 31.8427 160.373 26.6812 160.24 20.6424H159.017C158.885 30.9656 157.365 38.3875 150.027 42.3346L149.333 41.1876C154.588 36.667 155.58 32.5512 155.745 20.6762C155.117 20.7436 154.522 20.8111 153.96 20.9461L154.125 31.2355C154.125 31.9777 153.993 32.0452 151.878 32.5512C151.283 32.7199 151.085 32.4837 151.085 31.8765V30.8981H149.366V33.597C149.366 34.4067 149.201 34.4741 147.052 35.0476C146.325 35.2163 146.127 34.879 146.16 34.238C146.292 28.233 146.358 22.0256 146.358 17.3026C146.358 16.4929 146.325 15.5821 146.193 14.57C147.217 14.7049 148.341 15.0423 149.168 15.4134H150.688C151.085 14.9748 151.779 14.3676 152.374 14.3676C153.068 14.4013 154.72 15.5146 154.72 16.1218C154.72 16.6279 154.357 16.9315 153.894 17.1002L153.927 19.3605C154.621 19.4617 155.216 19.5629 155.745 19.5966C155.778 18.2472 155.778 16.8303 155.778 15.3122C155.778 13.9965 155.745 12.9169 155.58 11.7362C156.241 11.8374 156.77 11.8036 157.398 11.7362C159.216 11.6012 160.703 11.8374 160.703 12.5458C160.703 13.2205 159.745 13.6254 159.017 13.7603V19.6304H159.91C160.273 19.1243 160.934 18.4496 161.529 18.4496C162.257 18.4496 164.24 19.6304 164.24 20.2376C164.24 20.8786 163.909 21.1485 163.48 21.3846C163.546 26.9848 163.413 33.0235 162.818 37.0381C162.587 38.7923 162.323 39.4333 161.562 40.108C160.835 40.7827 159.91 41.1538 159.017 41.2888ZM149.366 29.8861H151.085V16.4255H149.366V29.8861ZM164.537 39.8044C164.703 32.5175 164.802 26.8836 164.802 18.4496C164.802 17.5725 164.736 16.6279 164.603 15.5821C165.76 15.717 166.983 16.0544 167.876 16.4592H169.297C169.694 15.9532 170.454 15.2784 171.049 15.2784C171.776 15.2784 173.693 16.4929 173.693 17.1676C173.693 17.7074 173.296 18.011 172.867 18.2135L173.164 38.1176C173.164 38.8935 172.933 38.961 170.52 39.4333C169.859 39.5345 169.627 39.3321 169.627 38.6236V36.2284H167.975V39.3658C167.975 40.0743 167.843 40.1418 165.43 40.5466C164.736 40.6815 164.537 40.9514 164.537 39.8044ZM167.975 35.2163H169.627V17.4713H167.975V35.2163Z" fill="#F7F6EF"/>
<path d="M196.037 33.091C195.31 33.1922 195.145 33.0235 195.178 32.2813C195.277 27.6595 195.31 20.7774 195.31 17.3026C195.31 16.4592 195.277 15.5483 195.145 14.6375C196.368 14.8399 197.756 15.1772 198.714 15.6495H200.532C200.995 15.076 201.689 14.4013 202.317 14.4013C203.077 14.4013 204.928 15.5821 204.928 16.223C204.928 16.9315 204.565 17.1676 204.069 17.3701L204.201 29.0764C204.234 29.7174 204.036 29.9198 201.689 30.4258C200.962 30.5608 200.797 30.3246 200.797 29.6499V27.4571H198.78V31.8765C198.78 32.5512 198.615 32.6187 196.037 33.091ZM198.78 26.445H200.797V16.6616H198.78V26.445ZM201.193 41.9298C205.424 39.4333 207.176 36.7007 207.87 32.5512C206.283 33.3946 204.565 34.103 203.342 34.4067C203.309 35.1826 203.21 35.8236 202.681 35.891C202.185 35.9248 201.458 34.4741 201.193 31.6066C203.54 31.5054 205.887 31.1343 208.134 30.4933C208.267 29.1439 208.333 27.6595 208.333 26.0064H208.002C207.044 26.0064 206.416 26.0739 205.325 26.3101L204.73 24.657C206.25 24.9269 207.044 24.9944 207.837 24.9944H208.366V20.2039H207.87C206.68 20.2039 205.986 20.2713 204.73 20.4738L204.168 18.8544C205.722 19.0906 206.68 19.1581 207.705 19.1581H208.366V15.1098C208.366 14.0639 208.333 12.8495 208.134 11.7362C208.696 11.8036 209.159 11.8036 209.787 11.7362C211.473 11.6012 213.092 11.8711 213.092 12.4784C213.092 13.0856 212.464 13.3555 211.869 13.4567V24.6233C211.869 33.5295 210.713 40.1755 201.755 43.1105L201.193 41.9298ZM213.886 11.5675C214.547 11.635 214.976 11.635 215.671 11.5675C217.455 11.4663 219.24 11.7362 219.24 12.4109C219.24 13.0856 218.282 13.3892 217.654 13.4567V19.1581H219.174C219.439 18.4833 220.331 17.1002 220.959 17.1002C221.653 17.1002 223.306 18.7532 223.306 19.5292C223.306 20.0689 223.174 20.1701 222.678 20.1701H217.654V24.9944H218.612C218.844 24.3534 219.736 23.0714 220.265 23.0714C220.926 23.0714 222.48 24.6233 222.48 25.3655C222.48 25.8715 222.347 26.0064 221.852 26.0064H217.654V30.7969H219.571C219.868 30.0885 220.86 28.6041 221.521 28.6041C222.215 28.6041 224 30.3921 224 31.168C224 31.7078 223.868 31.809 223.372 31.809H217.654V33.7994C217.654 36.0597 217.687 38.5224 217.753 41.6936C217.786 42.5707 217.555 42.6719 214.712 42.7732C214.084 42.8069 213.886 42.6719 213.919 41.9972C214.018 39.0959 214.084 36.4646 214.084 33.9344V15.2447C214.084 13.7603 214.051 12.7482 213.886 11.5675Z" fill="#F7F6EF"/>
<path d="M21.1855 12.4453C36.8067 0.998424 37.9903 46.0615 16.4521 42.5684C11.2452 41.1223 8.68859 21.6029 21.1855 12.4453Z" fill="#F7F6EF"/>
<path d="M18.0312 12.4336L17.8835 12.2319L17.8835 12.2319L18.0312 12.4336ZM13.2979 42.5576L13.231 42.7985L13.2442 42.8022L13.2578 42.8044L13.2979 42.5576ZM23.6436 10.7676L23.8722 10.8687L23.4186 10.6585L23.6436 10.7676ZM16.1113 30.7725L15.8615 30.7805L15.8615 30.7806L16.1113 30.7725ZM17.2197 31.0615L17.4291 31.1981L17.4291 31.1981L17.2197 31.0615ZM18.0312 12.4336L18.179 12.6353C20.102 11.2262 21.7697 10.7111 23.1744 10.834C24.5738 10.9564 25.7585 11.7163 26.7124 12.9553C28.6314 15.4481 29.57 19.8283 29.3494 24.5014C29.1292 29.1668 27.7558 34.0613 25.1207 37.5645C22.4955 41.0546 18.6193 43.1674 13.3379 42.3108L13.2979 42.5576L13.2578 42.8044C18.7454 43.6944 22.798 41.4842 25.5203 37.865C28.2327 34.259 29.6254 29.258 29.8489 24.525C30.0719 19.7996 29.1319 15.2785 27.1086 12.6503C26.0913 11.3289 24.789 10.4733 23.2179 10.3359C21.6521 10.1989 19.8657 10.7795 17.8835 12.2319L18.0312 12.4336ZM13.2979 42.5576L13.3647 42.3167C12.7815 42.1548 12.2134 41.7329 11.6901 41.0689C11.1676 40.4059 10.7009 39.5151 10.3188 38.4444C9.55483 36.3034 9.14047 33.4746 9.27535 30.3984C9.54519 24.2441 12.009 17.1565 18.179 12.6352L18.0312 12.4336L17.8835 12.2319C11.5565 16.8682 9.05017 24.1196 8.77583 30.3765C8.63862 33.5058 9.05865 36.4006 9.84793 38.6125C10.2425 39.7183 10.7322 40.6613 11.2974 41.3784C11.8617 42.0944 12.5125 42.599 13.231 42.7985L13.2979 42.5576ZM23.6436 10.7676L23.4186 10.6585C22.2768 13.014 20.3515 16.8384 18.7322 20.6645C17.9224 22.578 17.1869 24.4971 16.663 26.238C16.1406 27.9739 15.8221 29.5535 15.8615 30.7805L16.1113 30.7725L16.3612 30.7645C16.3245 29.6206 16.6236 28.1041 17.1418 26.3821C17.6584 24.6651 18.3865 22.7644 19.1927 20.8594C20.8055 17.0485 22.7223 13.2413 23.8685 10.8766L23.6436 10.7676ZM16.1113 30.7725L15.8615 30.7806C15.8755 31.2113 16.1246 31.5301 16.4744 31.62C16.8208 31.709 17.1961 31.5554 17.4291 31.1981L17.2197 31.0615L17.0103 30.9249C16.8778 31.1281 16.7097 31.1642 16.5988 31.1357C16.4912 31.1081 16.3689 31.0022 16.3612 30.7643L16.1113 30.7725ZM17.2197 31.0615L17.4291 31.1981C18.1718 30.0594 18.8812 28.3521 19.5424 26.4146C20.2051 24.4724 20.8253 22.2803 21.3851 20.1608C21.9446 18.0422 22.4456 15.9886 22.8674 14.3305C23.2926 12.6592 23.6325 11.4109 23.8722 10.8687L23.6436 10.7676L23.4149 10.6665C23.154 11.2567 22.803 12.5557 22.3828 14.2073C21.9593 15.8722 21.4605 17.917 20.9017 20.0332C20.343 22.1484 19.7263 24.3274 19.0691 26.2531C18.4105 28.1835 17.7172 29.8412 17.0103 30.9249L17.2197 31.0615Z" fill="#8D7141"/>
</svg>
