<svg width="44" height="55" viewBox="0 0 44 55" fill="none" xmlns="http://www.w3.org/2000/svg">
<path d="M21.1846 12.2246L20.8925 11.8188L20.8925 11.8188L21.1846 12.2246ZM16.4512 41.8105L16.3196 42.2929L16.3458 42.3001L16.3725 42.3043L16.4512 41.8105ZM21.1846 12.2246L21.4766 12.6304C23.3697 11.268 24.9796 10.793 26.3067 10.907C27.6235 11.0201 28.7496 11.7207 29.6704 12.8955C31.5349 15.2741 32.4724 19.5028 32.2531 24.0642C32.0346 28.6102 30.6717 33.362 28.0769 36.7501C25.5019 40.1123 21.7129 42.1423 16.5298 41.3168L16.4512 41.8105L16.3725 42.3043C21.9584 43.194 26.0983 40.9782 28.8708 37.3581C31.6235 33.7639 33.0267 28.7968 33.2519 24.1122C33.4764 19.443 32.5352 14.9293 30.4574 12.2785C29.4071 10.9386 28.0461 10.0527 26.3923 9.91066C24.7489 9.7695 22.9047 10.3706 20.8925 11.8188L21.1846 12.2246ZM16.4512 41.8105L16.5827 41.3282C16.0655 41.1871 15.5389 40.8129 15.037 40.1875C14.5366 39.5638 14.082 38.7157 13.7067 37.6826C12.9561 35.6168 12.5448 32.8732 12.6784 29.88C12.9458 23.8911 15.3861 17.0138 21.4766 12.6304L21.1846 12.2246L20.8925 11.8188C14.486 16.4295 11.9562 23.635 11.6794 29.8354C11.5409 32.937 11.964 35.8148 12.7668 38.0241C13.1681 39.1286 13.6699 40.0816 14.2571 40.8133C14.8428 41.5433 15.5351 42.0789 16.3196 42.2929L16.4512 41.8105Z" fill="#F7F6EF"/>
<path d="M18.0312 12.2129C33.6525 0.970345 34.8354 45.2292 13.2969 41.7979C8.09032 40.3764 5.53473 21.2066 18.0312 12.2129ZM23.6436 10.5762C21.3559 15.2114 15.9598 25.5637 16.1104 30.2217C16.1318 30.884 16.8475 31.0658 17.2148 30.5146C20.1159 26.1557 22.6418 12.8013 23.6436 10.5762Z" fill="#ECE9D5"/>
</svg>
