<svg width="36" height="36" viewBox="0 0 36 36" fill="none" xmlns="http://www.w3.org/2000/svg">
<path d="M3.75 6.375C3.75 5.75368 4.25368 5.25 4.875 5.25H5.71239C7.13809 5.25 7.99173 6.20848 8.47988 7.09948C8.80524 7.69341 9.04062 8.38227 9.22473 9.00593C9.27459 9.00201 9.32511 9 9.3762 9H28.1222C29.3675 9 30.2667 10.1916 29.9253 11.3892L27.1836 21.0028C26.6784 22.7748 25.0593 23.9967 23.2169 23.9967H14.2947C12.4369 23.9967 10.8084 22.7549 10.3167 20.9634L9.17601 16.8068L7.28811 10.4337L7.28505 10.4225C7.0515 9.57077 6.8323 8.77508 6.50659 8.18055C6.19029 7.6032 5.93815 7.5 5.71239 7.5H4.875C4.25368 7.5 3.75 6.99632 3.75 6.375ZM13.5 31.5C15.1569 31.5 16.5 30.1569 16.5 28.5C16.5 26.8431 15.1569 25.5 13.5 25.5C11.8431 25.5 10.5 26.8431 10.5 28.5C10.5 30.1569 11.8431 31.5 13.5 31.5ZM24 31.5C25.6569 31.5 27 30.1569 27 28.5C27 26.8431 25.6569 25.5 24 25.5C22.3431 25.5 21 26.8431 21 28.5C21 30.1569 22.3431 31.5 24 31.5Z" fill="#F7F6EF"/>
</svg>
