<svg width="36" height="36" viewBox="0 0 36 36" fill="none" xmlns="http://www.w3.org/2000/svg">
<path d="M26.6317 21.0008C28.4949 21.0008 30.0051 22.511 30.0051 24.3741V25.7517C30.0051 26.6118 29.7363 27.4503 29.2362 28.1501C26.9173 31.3949 23.1309 33.0024 18.0006 33.0024C12.8691 33.0024 9.08464 31.3943 6.7714 28.1477C6.27346 27.4488 6.00586 26.6121 6.00586 25.754V24.3741C6.00586 22.511 7.51613 21.0008 9.37916 21.0008H26.6317ZM18.0006 3.00781C22.1427 3.00781 25.5006 6.36568 25.5006 10.5078C25.5006 14.65 22.1427 18.0078 18.0006 18.0078C13.8584 18.0078 10.5005 14.65 10.5005 10.5078C10.5005 6.36568 13.8584 3.00781 18.0006 3.00781Z" fill="#F7F6EF"/>
</svg>
