<svg width="24" height="24" viewBox="0 0 24 24" fill="none" xmlns="http://www.w3.org/2000/svg">
<path d="M2.75281 18.0007H21.2528C21.6671 18.0007 22.0028 18.3365 22.0028 18.7507C22.0028 19.1304 21.7207 19.4442 21.3546 19.4938L21.2528 19.5007H2.75281C2.33859 19.5007 2.00281 19.1649 2.00281 18.7507C2.00281 18.371 2.28496 18.0572 2.65104 18.0075L2.75281 18.0007ZM2.75281 11.5037H21.2528C21.6671 11.5037 22.0028 11.8395 22.0028 12.2537C22.0028 12.6334 21.7207 12.9472 21.3546 12.9969L21.2528 13.0037H2.75281C2.33859 13.0037 2.00281 12.6679 2.00281 12.2537C2.00281 11.874 2.28496 11.5602 2.65104 11.5105L2.75281 11.5037ZM2.75195 5.00391H21.252C21.6662 5.00391 22.002 5.3397 22.002 5.75391C22.002 6.13361 21.7198 6.4474 21.3538 6.49706L21.252 6.50391H2.75195C2.33773 6.50391 2.00195 6.16812 2.00195 5.75391C2.00195 5.37421 2.2841 5.06042 2.65018 5.01076L2.75195 5.00391Z" fill="#F7F6EF"/>
</svg>
